<mxfile host="app.diagrams.net" modified="2023-06-06T08:39:57.272Z" agent="Mozilla/5.0 (Windows NT 10.0; Win64; x64) AppleWebKit/537.36 (KHTML, like Gecko) Chrome/114.0.0.0 Safari/537.36" etag="7jXjFYMTDxXiColXfiLT" version="21.3.7" type="github">
  <diagram name="Page-1" id="BuuCD-b0GSaSV_Pso_qp">
    <mxGraphModel dx="1050" dy="623" grid="1" gridSize="10" guides="1" tooltips="1" connect="1" arrows="1" fold="1" page="1" pageScale="1" pageWidth="850" pageHeight="1100" math="0" shadow="0">
      <root>
        <mxCell id="0" />
        <mxCell id="1" parent="0" />
        <mxCell id="j7EdN9AqP-IH4uUMdObs-22" value="" style="shape=image;verticalLabelPosition=bottom;labelBackgroundColor=default;verticalAlign=top;aspect=fixed;imageAspect=0;image=https://www.pptssolutions.com/wp-content/uploads/2020/07/odoo-services.jpg;clipPath=inset(19.9% 27% 11.22% 27% round 49%);" vertex="1" parent="1">
          <mxGeometry x="187" y="140" width="398.67" height="390" as="geometry" />
        </mxCell>
        <mxCell id="j7EdN9AqP-IH4uUMdObs-23" value="&lt;p&gt;&lt;font face=&quot;Tahoma&quot;&gt;&lt;b&gt;Sales Management&lt;/b&gt;&lt;/font&gt;&lt;/p&gt;" style="text;html=1;strokeColor=none;fillColor=none;align=center;verticalAlign=middle;whiteSpace=wrap;rounded=0;fontSize=13;fontStyle=0;fontFamily=Verdana;fontColor=#2E2E2E;" vertex="1" parent="1">
          <mxGeometry x="356.34" y="100" width="60" height="30" as="geometry" />
        </mxCell>
        <mxCell id="j7EdN9AqP-IH4uUMdObs-24" value="&lt;p&gt;&lt;font face=&quot;Tahoma&quot;&gt;&lt;b&gt;Purchase Management&lt;/b&gt;&lt;/font&gt;&lt;/p&gt;" style="text;html=1;strokeColor=none;fillColor=none;align=center;verticalAlign=middle;whiteSpace=wrap;rounded=0;fontSize=13;fontStyle=0;fontFamily=Verdana;fontColor=#2E2E2E;" vertex="1" parent="1">
          <mxGeometry x="481" y="124" width="60" height="30" as="geometry" />
        </mxCell>
        <mxCell id="j7EdN9AqP-IH4uUMdObs-25" value="&lt;p&gt;&lt;font face=&quot;Tahoma&quot;&gt;&lt;b&gt;Distribution&lt;/b&gt;&lt;/font&gt;&lt;/p&gt;" style="text;html=1;strokeColor=none;fillColor=none;align=center;verticalAlign=middle;whiteSpace=wrap;rounded=0;fontSize=13;fontStyle=0;fontFamily=Verdana;fontColor=#2E2E2E;" vertex="1" parent="1">
          <mxGeometry x="229" y="127" width="60" height="30" as="geometry" />
        </mxCell>
        <mxCell id="j7EdN9AqP-IH4uUMdObs-26" value="&lt;p&gt;Product Lifecycle Management (PLM)&lt;br&gt;&lt;/p&gt;" style="text;html=1;strokeColor=none;fillColor=none;align=center;verticalAlign=middle;whiteSpace=wrap;rounded=0;fontSize=13;fontStyle=1;fontFamily=Verdana;fontColor=#2E2E2E;" vertex="1" parent="1">
          <mxGeometry x="576" y="204" width="60" height="30" as="geometry" />
        </mxCell>
        <mxCell id="j7EdN9AqP-IH4uUMdObs-27" value="&lt;p&gt;&lt;font face=&quot;Tahoma&quot;&gt;&lt;b&gt;Inventory Management&lt;/b&gt;&lt;/font&gt;&lt;/p&gt;" style="text;html=1;strokeColor=none;fillColor=none;align=center;verticalAlign=middle;whiteSpace=wrap;rounded=0;fontSize=13;fontStyle=0;fontFamily=Verdana;fontColor=#2E2E2E;" vertex="1" parent="1">
          <mxGeometry x="606" y="340" width="60" height="30" as="geometry" />
        </mxCell>
        <mxCell id="j7EdN9AqP-IH4uUMdObs-28" value="&lt;p&gt;&lt;font face=&quot;Tahoma&quot;&gt;&lt;b&gt;Project Management&lt;/b&gt;&lt;/font&gt;&lt;/p&gt;" style="text;html=1;strokeColor=none;fillColor=none;align=center;verticalAlign=middle;whiteSpace=wrap;rounded=0;fontSize=13;fontStyle=0;fontFamily=Verdana;fontColor=#2E2E2E;" vertex="1" parent="1">
          <mxGeometry x="560" y="450" width="60" height="30" as="geometry" />
        </mxCell>
        <mxCell id="j7EdN9AqP-IH4uUMdObs-29" value="&lt;p&gt;&lt;b&gt;Sub&lt;br&gt;Contractor&lt;/b&gt;&lt;br&gt;&lt;/p&gt;" style="text;html=1;strokeColor=none;fillColor=none;align=center;verticalAlign=middle;whiteSpace=wrap;rounded=0;fontSize=13;fontStyle=0;fontFamily=Verdana;fontColor=#2E2E2E;" vertex="1" parent="1">
          <mxGeometry x="457" y="517" width="60" height="30" as="geometry" />
        </mxCell>
        <mxCell id="j7EdN9AqP-IH4uUMdObs-30" value="&lt;p&gt;&lt;font face=&quot;Tahoma&quot;&gt;&lt;b&gt;CRM&lt;/b&gt;&lt;/font&gt;&lt;/p&gt;" style="text;html=1;strokeColor=none;fillColor=none;align=center;verticalAlign=middle;whiteSpace=wrap;rounded=0;fontSize=13;fontStyle=0;fontFamily=Verdana;fontColor=#2E2E2E;" vertex="1" parent="1">
          <mxGeometry x="264" y="515" width="60" height="30" as="geometry" />
        </mxCell>
        <mxCell id="j7EdN9AqP-IH4uUMdObs-31" value="&lt;p&gt;&lt;font face=&quot;Tahoma&quot;&gt;&lt;b&gt;HR Management&lt;/b&gt;&lt;/font&gt;&lt;/p&gt;" style="text;html=1;strokeColor=none;fillColor=none;align=center;verticalAlign=middle;whiteSpace=wrap;rounded=0;fontSize=13;fontStyle=0;fontFamily=Verdana;fontColor=#2E2E2E;" vertex="1" parent="1">
          <mxGeometry x="160" y="450" width="60" height="30" as="geometry" />
        </mxCell>
        <mxCell id="j7EdN9AqP-IH4uUMdObs-32" value="&lt;p&gt;&lt;font face=&quot;Tahoma&quot;&gt;&lt;b&gt;Manufacturing&lt;/b&gt;&lt;/font&gt;&lt;/p&gt;" style="text;html=1;strokeColor=none;fillColor=none;align=center;verticalAlign=middle;whiteSpace=wrap;rounded=0;fontSize=13;fontStyle=0;fontFamily=Verdana;fontColor=#2E2E2E;" vertex="1" parent="1">
          <mxGeometry x="110" y="340" width="60" height="30" as="geometry" />
        </mxCell>
        <mxCell id="j7EdN9AqP-IH4uUMdObs-33" value="&lt;p&gt;&lt;font face=&quot;Tahoma&quot;&gt;&lt;b&gt;Accounting&lt;/b&gt;&lt;/font&gt;&lt;/p&gt;" style="text;html=1;strokeColor=none;fillColor=none;align=center;verticalAlign=middle;whiteSpace=wrap;rounded=0;fontSize=13;fontStyle=0;fontFamily=Verdana;fontColor=#2E2E2E;" vertex="1" parent="1">
          <mxGeometry x="132" y="216" width="60" height="30" as="geometry" />
        </mxCell>
      </root>
    </mxGraphModel>
  </diagram>
</mxfile>
